<svg xmlns="http://www.w3.org/2000/svg" width="192" height="192" viewBox="0 0 192 192" role="img" aria-label="wrapux icon">
  <rect width="192" height="192" rx="38" fill="#101820"/>
  <path d="M38 62c0-13 11-24 24-24h68c13 0 24 11 24 24v68c0 13-11 24-24 24H62c-13 0-24-11-24-24V62Z" fill="#132b34" stroke="#15c2a8" stroke-width="6"/>
  <path d="M64 76l25 20-25 20" fill="none" stroke="#e9f7ef" stroke-width="10" stroke-linecap="round" stroke-linejoin="round"/>
  <path d="M100 118h34" stroke="#f5c542" stroke-width="10" stroke-linecap="round"/>
  <path d="M54 48c12-14 29-22 48-22 35 0 64 28 64 63" fill="none" stroke="#15c2a8" stroke-width="8" stroke-linecap="round"/>
  <path d="M138 42l28 47 10-53" fill="#15c2a8"/>
</svg>
